<svg width="1024" height="753" viewBox="0 0 1024 753" fill="none" xmlns="http://www.w3.org/2000/svg">
<g clip-path="url(#clip0_122_130)">
<rect width="1024" height="753" fill="#121214"/>
<g opacity="0.2" filter="url(#filter0_f_122_130)">
<ellipse cx="528.5" cy="47" rx="670.5" ry="350" fill="#35875D"/>
</g>
<path d="M49.0349 283C50.5302 283 51.6622 283.63 52.4308 284.891C53.2134 286.138 53.6047 287.953 53.6047 290.336C53.6047 292.719 53.2134 294.541 52.4308 295.802C51.6622 297.063 50.5302 297.693 49.0349 297.693C47.5536 297.693 46.4216 297.063 45.639 295.802C44.8564 294.541 44.4651 292.719 44.4651 290.336C44.4651 287.967 44.8564 286.152 45.639 284.891C46.4216 283.63 47.5536 283 49.0349 283ZM45.9534 290.336C45.9534 292.026 46.1072 293.35 46.4146 294.306L51.0683 285.099C50.5791 284.448 49.9013 284.122 49.0349 284.122C48.0706 284.122 47.316 284.635 46.771 285.66C46.2259 286.672 45.9534 288.23 45.9534 290.336ZM49.0349 296.55C50.0131 296.55 50.7748 296.044 51.3198 295.033C51.8648 294.008 52.1373 292.442 52.1373 290.336C52.1373 288.549 51.9627 287.163 51.6133 286.18L46.9596 295.469C47.4627 296.19 48.1545 296.55 49.0349 296.55Z" fill="url(#paint0_linear_122_130)" fill-opacity="0.6"/>
<path d="M50.2926 320.135H53.3741V321.236H45.3874V320.135H48.9511V308.455L45.5551 310.471L44.9682 309.536L49.1607 306.959H50.2926V320.135Z" fill="url(#paint1_linear_122_130)" fill-opacity="0.6"/>
<path d="M49.0349 330.502C50.5302 330.502 51.6622 331.133 52.4308 332.393C53.2134 333.64 53.6047 335.455 53.6047 337.838C53.6047 340.221 53.2134 342.043 52.4308 343.304C51.6622 344.565 50.5302 345.195 49.0349 345.195C47.5536 345.195 46.4216 344.565 45.639 343.304C44.8564 342.043 44.4651 340.221 44.4651 337.838C44.4651 335.469 44.8564 333.654 45.639 332.393C46.4216 331.133 47.5536 330.502 49.0349 330.502ZM45.9534 337.838C45.9534 339.529 46.1072 340.852 46.4146 341.808L51.0683 332.601C50.5791 331.95 49.9013 331.624 49.0349 331.624C48.0706 331.624 47.316 332.137 46.771 333.162C46.2259 334.174 45.9534 335.732 45.9534 337.838ZM49.0349 344.052C50.0131 344.052 50.7748 343.546 51.3198 342.535C51.8648 341.51 52.1373 339.944 52.1373 337.838C52.1373 336.051 51.9627 334.665 51.6133 333.682L46.9596 342.971C47.4627 343.692 48.1545 344.052 49.0349 344.052Z" fill="url(#paint2_linear_122_130)" fill-opacity="0.6"/>
<path d="M50.2926 367.637H53.3741V368.738H45.3874V367.637H48.9511V355.957L45.5551 357.973L44.9682 357.038L49.1607 354.461H50.2926V367.637Z" fill="url(#paint3_linear_122_130)" fill-opacity="0.6"/>
<path d="M50.2926 391.388H53.3741V392.489H45.3874V391.388H48.9511V379.708L45.5551 381.724L44.9682 380.789L49.1607 378.212H50.2926V391.388Z" fill="url(#paint4_linear_122_130)" fill-opacity="0.6"/>
<path d="M49.0349 401.755C50.5302 401.755 51.6622 402.386 52.4308 403.646C53.2134 404.893 53.6047 406.708 53.6047 409.091C53.6047 411.474 53.2134 413.296 52.4308 414.557C51.6622 415.818 50.5302 416.448 49.0349 416.448C47.5536 416.448 46.4216 415.818 45.639 414.557C44.8564 413.296 44.4651 411.474 44.4651 409.091C44.4651 406.722 44.8564 404.907 45.639 403.646C46.4216 402.386 47.5536 401.755 49.0349 401.755ZM45.9534 409.091C45.9534 410.782 46.1072 412.105 46.4146 413.061L51.0683 403.854C50.5791 403.203 49.9013 402.878 49.0349 402.878C48.0706 402.878 47.316 403.39 46.771 404.415C46.2259 405.427 45.9534 406.985 45.9534 409.091ZM49.0349 415.305C50.0131 415.305 50.7748 414.8 51.3198 413.788C51.8648 412.763 52.1373 411.197 52.1373 409.091C52.1373 407.304 51.9627 405.919 51.6133 404.935L46.9596 414.225C47.4627 414.945 48.1545 415.305 49.0349 415.305Z" fill="url(#paint5_linear_122_130)" fill-opacity="0.6"/>
<path d="M50.2926 438.89H53.3741V439.992H45.3874V438.89H48.9511V427.21L45.5551 429.226L44.9682 428.291L49.1607 425.714H50.2926V438.89Z" fill="url(#paint6_linear_122_130)" fill-opacity="0.6"/>
<path d="M49.0349 449.257C50.5302 449.257 51.6622 449.888 52.4308 451.149C53.2134 452.396 53.6047 454.211 53.6047 456.594C53.6047 458.977 53.2134 460.798 52.4308 462.059C51.6622 463.32 50.5302 463.95 49.0349 463.95C47.5536 463.95 46.4216 463.32 45.639 462.059C44.8564 460.798 44.4651 458.977 44.4651 456.594C44.4651 454.224 44.8564 452.409 45.639 451.149C46.4216 449.888 47.5536 449.257 49.0349 449.257ZM45.9534 456.594C45.9534 458.284 46.1072 459.607 46.4146 460.563L51.0683 451.356C50.5791 450.705 49.9013 450.38 49.0349 450.38C48.0706 450.38 47.316 450.892 46.771 451.918C46.2259 452.929 45.9534 454.488 45.9534 456.594ZM49.0349 462.807C50.0131 462.807 50.7748 462.302 51.3198 461.29C51.8648 460.265 52.1373 458.699 52.1373 456.594C52.1373 454.806 51.9627 453.421 51.6133 452.437L46.9596 461.727C47.4627 462.447 48.1545 462.807 49.0349 462.807Z" fill="url(#paint7_linear_122_130)" fill-opacity="0.6"/>
<path d="M49.0349 473.008C50.5302 473.008 51.6622 473.639 52.4308 474.9C53.2134 476.147 53.6047 477.962 53.6047 480.345C53.6047 482.728 53.2134 484.549 52.4308 485.81C51.6622 487.071 50.5302 487.701 49.0349 487.701C47.5536 487.701 46.4216 487.071 45.639 485.81C44.8564 484.549 44.4651 482.728 44.4651 480.345C44.4651 477.975 44.8564 476.16 45.639 474.9C46.4216 473.639 47.5536 473.008 49.0349 473.008ZM45.9534 480.345C45.9534 482.035 46.1072 483.358 46.4146 484.314L51.0683 475.107C50.5791 474.456 49.9013 474.131 49.0349 474.131C48.0706 474.131 47.316 474.643 46.771 475.669C46.2259 476.68 45.9534 478.239 45.9534 480.345ZM49.0349 486.558C50.0131 486.558 50.7748 486.053 51.3198 485.041C51.8648 484.016 52.1373 482.451 52.1373 480.345C52.1373 478.557 51.9627 477.172 51.6133 476.188L46.9596 485.478C47.4627 486.198 48.1545 486.558 49.0349 486.558Z" fill="url(#paint8_linear_122_130)" fill-opacity="0.6"/>
<path d="M50.2926 510.143H53.3741V511.245H45.3874V510.143H48.9511V498.464L45.5551 500.48L44.9682 499.544L49.1607 496.967H50.2926V510.143Z" fill="url(#paint9_linear_122_130)" fill-opacity="0.6"/>
<path d="M49.0349 520.511C50.5302 520.511 51.6622 521.141 52.4308 522.402C53.2134 523.649 53.6047 525.464 53.6047 527.847C53.6047 530.23 53.2134 532.052 52.4308 533.312C51.6622 534.573 50.5302 535.204 49.0349 535.204C47.5536 535.204 46.4216 534.573 45.639 533.312C44.8564 532.052 44.4651 530.23 44.4651 527.847C44.4651 525.478 44.8564 523.663 45.639 522.402C46.4216 521.141 47.5536 520.511 49.0349 520.511ZM45.9534 527.847C45.9534 529.537 46.1072 530.86 46.4146 531.816L51.0683 522.61C50.5791 521.958 49.9013 521.633 49.0349 521.633C48.0706 521.633 47.316 522.145 46.771 523.171C46.2259 524.182 45.9534 525.741 45.9534 527.847ZM49.0349 534.061C50.0131 534.061 50.7748 533.555 51.3198 532.543C51.8648 531.518 52.1373 529.953 52.1373 527.847C52.1373 526.059 51.9627 524.674 51.6133 523.69L46.9596 532.98C47.4627 533.7 48.1545 534.061 49.0349 534.061Z" fill="url(#paint10_linear_122_130)" fill-opacity="0.6"/>
<path d="M50.2926 557.645H53.3741V558.747H45.3874V557.645H48.9511V545.966L45.5551 547.982L44.9682 547.046L49.1607 544.469H50.2926V557.645Z" fill="url(#paint11_linear_122_130)" fill-opacity="0.6"/>
<path d="M50.2926 581.396H53.3741V582.498H45.3874V581.396H48.9511V569.717L45.5551 571.733L44.9682 570.798L49.1607 568.221H50.2926V581.396Z" fill="url(#paint12_linear_122_130)" fill-opacity="0.6"/>
<path d="M87.9651 330.502C89.4604 330.502 90.5924 331.133 91.361 332.393C92.1436 333.64 92.5349 335.455 92.5349 337.838C92.5349 340.221 92.1436 342.043 91.361 343.304C90.5924 344.565 89.4604 345.195 87.9651 345.195C86.4838 345.195 85.3518 344.565 84.5692 343.304C83.7866 342.043 83.3953 340.221 83.3953 337.838C83.3953 335.469 83.7866 333.654 84.5692 332.393C85.3518 331.133 86.4838 330.502 87.9651 330.502ZM84.8836 337.838C84.8836 339.529 85.0374 340.852 85.3448 341.808L89.9985 332.601C89.5093 331.95 88.8315 331.624 87.9651 331.624C87.0008 331.624 86.2462 332.137 85.7012 333.162C85.1561 334.174 84.8836 335.732 84.8836 337.838ZM87.9651 344.052C88.9433 344.052 89.705 343.546 90.25 342.535C90.795 341.51 91.0675 339.944 91.0675 337.838C91.0675 336.051 90.8928 334.665 90.5435 333.682L85.8898 342.971C86.3929 343.692 87.0847 344.052 87.9651 344.052Z" fill="url(#paint13_linear_122_130)" fill-opacity="0.6"/>
<path d="M89.2228 367.637H92.3043V368.738H84.3176V367.637H87.8812V355.957L84.4853 357.973L83.8984 357.038L88.0909 354.461H89.2228V367.637Z" fill="url(#paint14_linear_122_130)" fill-opacity="0.6"/>
<path d="M87.9651 378.004C89.4604 378.004 90.5924 378.635 91.361 379.895C92.1436 381.142 92.5349 382.957 92.5349 385.34C92.5349 387.723 92.1436 389.545 91.361 390.806C90.5924 392.067 89.4604 392.697 87.9651 392.697C86.4838 392.697 85.3518 392.067 84.5692 390.806C83.7866 389.545 83.3953 387.723 83.3953 385.34C83.3953 382.971 83.7866 381.156 84.5692 379.895C85.3518 378.635 86.4838 378.004 87.9651 378.004ZM84.8836 385.34C84.8836 387.031 85.0374 388.354 85.3448 389.31L89.9985 380.103C89.5093 379.452 88.8315 379.126 87.9651 379.126C87.0008 379.126 86.2462 379.639 85.7012 380.664C85.1561 381.676 84.8836 383.234 84.8836 385.34ZM87.9651 391.554C88.9433 391.554 89.705 391.049 90.25 390.037C90.795 389.012 91.0675 387.446 91.0675 385.34C91.0675 383.553 90.8928 382.168 90.5435 381.184L85.8898 390.474C86.3929 391.194 87.0847 391.554 87.9651 391.554Z" fill="url(#paint15_linear_122_130)" fill-opacity="0.6"/>
<path d="M87.9651 401.755C89.4604 401.755 90.5924 402.386 91.361 403.646C92.1436 404.893 92.5349 406.708 92.5349 409.091C92.5349 411.474 92.1436 413.296 91.361 414.557C90.5924 415.818 89.4604 416.448 87.9651 416.448C86.4838 416.448 85.3518 415.818 84.5692 414.557C83.7866 413.296 83.3953 411.474 83.3953 409.091C83.3953 406.722 83.7866 404.907 84.5692 403.646C85.3518 402.386 86.4838 401.755 87.9651 401.755ZM84.8836 409.091C84.8836 410.782 85.0374 412.105 85.3448 413.061L89.9985 403.854C89.5093 403.203 88.8315 402.878 87.9651 402.878C87.0008 402.878 86.2462 403.39 85.7012 404.415C85.1561 405.427 84.8836 406.985 84.8836 409.091ZM87.9651 415.305C88.9433 415.305 89.705 414.8 90.25 413.788C90.795 412.763 91.0675 411.197 91.0675 409.091C91.0675 407.304 90.8928 405.919 90.5435 404.935L85.8898 414.225C86.3929 414.945 87.0847 415.305 87.9651 415.305Z" fill="url(#paint16_linear_122_130)" fill-opacity="0.6"/>
<path d="M89.2228 438.89H92.3043V439.992H84.3176V438.89H87.8812V427.21L84.4853 429.226L83.8984 428.291L88.0909 425.714H89.2228V438.89Z" fill="url(#paint17_linear_122_130)" fill-opacity="0.6"/>
<path d="M87.9651 449.257C89.4604 449.257 90.5924 449.888 91.361 451.149C92.1436 452.396 92.5349 454.211 92.5349 456.594C92.5349 458.977 92.1436 460.798 91.361 462.059C90.5924 463.32 89.4604 463.95 87.9651 463.95C86.4838 463.95 85.3518 463.32 84.5692 462.059C83.7866 460.798 83.3953 458.977 83.3953 456.594C83.3953 454.224 83.7866 452.409 84.5692 451.149C85.3518 449.888 86.4838 449.257 87.9651 449.257ZM84.8836 456.594C84.8836 458.284 85.0374 459.607 85.3448 460.563L89.9985 451.356C89.5093 450.705 88.8315 450.38 87.9651 450.38C87.0008 450.38 86.2462 450.892 85.7012 451.918C85.1561 452.929 84.8836 454.488 84.8836 456.594ZM87.9651 462.807C88.9433 462.807 89.705 462.302 90.25 461.29C90.795 460.265 91.0675 458.699 91.0675 456.594C91.0675 454.806 90.8928 453.421 90.5435 452.437L85.8898 461.727C86.3929 462.447 87.0847 462.807 87.9651 462.807Z" fill="url(#paint18_linear_122_130)" fill-opacity="0.6"/>
<path d="M89.2228 486.392H92.3043V487.494H84.3176V486.392H87.8812V474.713L84.4853 476.728L83.8984 475.793L88.0909 473.216H89.2228V486.392Z" fill="url(#paint19_linear_122_130)" fill-opacity="0.6"/>
<path d="M87.9651 496.76C89.4604 496.76 90.5924 497.39 91.361 498.651C92.1436 499.898 92.5349 501.713 92.5349 504.096C92.5349 506.479 92.1436 508.301 91.361 509.561C90.5924 510.822 89.4604 511.453 87.9651 511.453C86.4838 511.453 85.3518 510.822 84.5692 509.561C83.7866 508.301 83.3953 506.479 83.3953 504.096C83.3953 501.726 83.7866 499.911 84.5692 498.651C85.3518 497.39 86.4838 496.76 87.9651 496.76ZM84.8836 504.096C84.8836 505.786 85.0374 507.109 85.3448 508.065L89.9985 498.859C89.5093 498.207 88.8315 497.882 87.9651 497.882C87.0008 497.882 86.2462 498.394 85.7012 499.42C85.1561 500.431 84.8836 501.99 84.8836 504.096ZM87.9651 510.31C88.9433 510.31 89.705 509.804 90.25 508.792C90.795 507.767 91.0675 506.202 91.0675 504.096C91.0675 502.308 90.8928 500.923 90.5435 499.939L85.8898 509.229C86.3929 509.949 87.0847 510.31 87.9651 510.31Z" fill="url(#paint20_linear_122_130)" fill-opacity="0.6"/>
<path d="M87.9651 520.511C89.4604 520.511 90.5924 521.141 91.361 522.402C92.1436 523.649 92.5349 525.464 92.5349 527.847C92.5349 530.23 92.1436 532.052 91.361 533.312C90.5924 534.573 89.4604 535.204 87.9651 535.204C86.4838 535.204 85.3518 534.573 84.5692 533.312C83.7866 532.052 83.3953 530.23 83.3953 527.847C83.3953 525.478 83.7866 523.663 84.5692 522.402C85.3518 521.141 86.4838 520.511 87.9651 520.511ZM84.8836 527.847C84.8836 529.537 85.0374 530.86 85.3448 531.816L89.9985 522.61C89.5093 521.958 88.8315 521.633 87.9651 521.633C87.0008 521.633 86.2462 522.145 85.7012 523.171C85.1561 524.182 84.8836 525.741 84.8836 527.847ZM87.9651 534.061C88.9433 534.061 89.705 533.555 90.25 532.543C90.795 531.518 91.0675 529.953 91.0675 527.847C91.0675 526.059 90.8928 524.674 90.5435 523.69L85.8898 532.98C86.3929 533.7 87.0847 534.061 87.9651 534.061Z" fill="url(#paint21_linear_122_130)" fill-opacity="0.6"/>
<path d="M89.2228 557.645H92.3043V558.747H84.3176V557.645H87.8812V545.966L84.4853 547.982L83.8984 547.046L88.0909 544.469H89.2228V557.645Z" fill="url(#paint22_linear_122_130)" fill-opacity="0.6"/>
<path d="M87.9651 568.013C89.4604 568.013 90.5924 568.643 91.361 569.904C92.1436 571.151 92.5349 572.966 92.5349 575.349C92.5349 577.732 92.1436 579.554 91.361 580.815C90.5924 582.075 89.4604 582.706 87.9651 582.706C86.4838 582.706 85.3518 582.075 84.5692 580.815C83.7866 579.554 83.3953 577.732 83.3953 575.349C83.3953 572.98 83.7866 571.165 84.5692 569.904C85.3518 568.643 86.4838 568.013 87.9651 568.013ZM84.8836 575.349C84.8836 577.039 85.0374 578.362 85.3448 579.318L89.9985 570.112C89.5093 569.461 88.8315 569.135 87.9651 569.135C87.0008 569.135 86.2462 569.648 85.7012 570.673C85.1561 571.684 84.8836 573.243 84.8836 575.349ZM87.9651 581.563C88.9433 581.563 89.705 581.057 90.25 580.046C90.795 579.02 91.0675 577.455 91.0675 575.349C91.0675 573.562 90.8928 572.176 90.5435 571.192L85.8898 580.482C86.3929 581.202 87.0847 581.563 87.9651 581.563Z" fill="url(#paint23_linear_122_130)" fill-opacity="0.6"/>
<path d="M89.2228 605.148H92.3043V606.249H84.3176V605.148H87.8812V593.468L84.4853 595.484L83.8984 594.549L88.0909 591.972H89.2228V605.148Z" fill="url(#paint24_linear_122_130)" fill-opacity="0.6"/>
<path d="M89.2228 628.899H92.3043V630H84.3176V628.899H87.8812V617.219L84.4853 619.235L83.8984 618.3L88.0909 615.723H89.2228V628.899Z" fill="url(#paint25_linear_122_130)" fill-opacity="0.6"/>
<path d="M29.5698 354.253C31.0651 354.253 32.1971 354.884 32.9657 356.144C33.7483 357.391 34.1396 359.206 34.1396 361.589C34.1396 363.972 33.7483 365.794 32.9657 367.055C32.1971 368.316 31.0651 368.946 29.5698 368.946C28.0885 368.946 26.9565 368.316 26.1739 367.055C25.3913 365.794 25 363.972 25 361.589C25 359.22 25.3913 357.405 26.1739 356.144C26.9565 354.884 28.0885 354.253 29.5698 354.253ZM26.4883 361.589C26.4883 363.28 26.6421 364.603 26.9495 365.559L31.6032 356.352C31.114 355.701 30.4363 355.375 29.5698 355.375C28.6055 355.375 27.8509 355.888 27.3059 356.913C26.7608 357.925 26.4883 359.483 26.4883 361.589ZM29.5698 367.803C30.5481 367.803 31.3097 367.297 31.8547 366.286C32.3997 365.261 32.6722 363.695 32.6722 361.589C32.6722 359.802 32.4976 358.417 32.1482 357.433L27.4945 366.722C27.9976 367.443 28.6894 367.803 29.5698 367.803Z" fill="url(#paint26_linear_122_130)" fill-opacity="0.6"/>
<path d="M29.5698 378.004C31.0651 378.004 32.1971 378.635 32.9657 379.895C33.7483 381.142 34.1396 382.957 34.1396 385.34C34.1396 387.723 33.7483 389.545 32.9657 390.806C32.1971 392.067 31.0651 392.697 29.5698 392.697C28.0885 392.697 26.9565 392.067 26.1739 390.806C25.3913 389.545 25 387.723 25 385.34C25 382.971 25.3913 381.156 26.1739 379.895C26.9565 378.635 28.0885 378.004 29.5698 378.004ZM26.4883 385.34C26.4883 387.031 26.6421 388.354 26.9495 389.31L31.6032 380.103C31.114 379.452 30.4363 379.126 29.5698 379.126C28.6055 379.126 27.8509 379.639 27.3059 380.664C26.7608 381.676 26.4883 383.234 26.4883 385.34ZM29.5698 391.554C30.5481 391.554 31.3097 391.049 31.8547 390.037C32.3997 389.012 32.6722 387.446 32.6722 385.34C32.6722 383.553 32.4976 382.168 32.1482 381.184L27.4945 390.474C27.9976 391.194 28.6894 391.554 29.5698 391.554Z" fill="url(#paint27_linear_122_130)" fill-opacity="0.6"/>
<path d="M30.8276 415.139H33.909V416.24H25.9223V415.139H29.486V403.459L26.09 405.475L25.5031 404.54L29.6956 401.963H30.8276V415.139Z" fill="url(#paint28_linear_122_130)" fill-opacity="0.6"/>
<path d="M29.5698 425.506C31.0651 425.506 32.1971 426.137 32.9657 427.398C33.7483 428.644 34.1396 430.459 34.1396 432.842C34.1396 435.225 33.7483 437.047 32.9657 438.308C32.1971 439.569 31.0651 440.199 29.5698 440.199C28.0885 440.199 26.9565 439.569 26.1739 438.308C25.3913 437.047 25 435.225 25 432.842C25 430.473 25.3913 428.658 26.1739 427.398C26.9565 426.137 28.0885 425.506 29.5698 425.506ZM26.4883 432.842C26.4883 434.533 26.6421 435.856 26.9495 436.812L31.6032 427.605C31.114 426.954 30.4363 426.629 29.5698 426.629C28.6055 426.629 27.8509 427.141 27.3059 428.166C26.7608 429.178 26.4883 430.737 26.4883 432.842ZM29.5698 439.056C30.5481 439.056 31.3097 438.551 31.8547 437.539C32.3997 436.514 32.6722 434.948 32.6722 432.842C32.6722 431.055 32.4976 429.67 32.1482 428.686L27.4945 437.976C27.9976 438.696 28.6894 439.056 29.5698 439.056Z" fill="url(#paint29_linear_122_130)" fill-opacity="0.6"/>
<path d="M30.8276 462.641H33.909V463.743H25.9223V462.641H29.486V450.962L26.09 452.977L25.5031 452.042L29.6956 449.465H30.8276V462.641Z" fill="url(#paint30_linear_122_130)" fill-opacity="0.6"/>
<path d="M30.8276 486.392H33.909V487.494H25.9223V486.392H29.486V474.713L26.09 476.728L25.5031 475.793L29.6956 473.216H30.8276V486.392Z" fill="url(#paint31_linear_122_130)" fill-opacity="0.6"/>
<path d="M69.7577 320.135H72.8392V321.236H64.8525V320.135H68.4162V308.455L65.0202 310.471L64.4333 309.536L68.6258 306.959H69.7577V320.135Z" fill="url(#paint32_linear_122_130)" fill-opacity="0.6"/>
<path d="M68.5 330.502C69.9953 330.502 71.1273 331.133 71.8959 332.393C72.6785 333.64 73.0698 335.455 73.0698 337.838C73.0698 340.221 72.6785 342.043 71.8959 343.304C71.1273 344.565 69.9953 345.195 68.5 345.195C67.0187 345.195 65.8867 344.565 65.1041 343.304C64.3215 342.043 63.9302 340.221 63.9302 337.838C63.9302 335.469 64.3215 333.654 65.1041 332.393C65.8867 331.133 67.0187 330.502 68.5 330.502ZM65.4185 337.838C65.4185 339.529 65.5723 340.852 65.8797 341.808L70.5334 332.601C70.0442 331.95 69.3664 331.624 68.5 331.624C67.5357 331.624 66.7811 332.137 66.2361 333.162C65.691 334.174 65.4185 335.732 65.4185 337.838ZM68.5 344.052C69.4782 344.052 70.2399 343.546 70.7849 342.535C71.3299 341.51 71.6024 339.944 71.6024 337.838C71.6024 336.051 71.4277 334.665 71.0784 333.682L66.4247 342.971C66.9278 343.692 67.6196 344.052 68.5 344.052Z" fill="url(#paint33_linear_122_130)" fill-opacity="0.6"/>
<path d="M69.7577 367.637H72.8392V368.738H64.8525V367.637H68.4162V355.957L65.0202 357.973L64.4333 357.038L68.6258 354.461H69.7577V367.637Z" fill="url(#paint34_linear_122_130)" fill-opacity="0.6"/>
<path d="M69.7577 391.388H72.8392V392.489H64.8525V391.388H68.4162V379.708L65.0202 381.724L64.4333 380.789L68.6258 378.212H69.7577V391.388Z" fill="url(#paint35_linear_122_130)" fill-opacity="0.6"/>
<path d="M68.5 401.755C69.9953 401.755 71.1273 402.386 71.8959 403.646C72.6785 404.893 73.0698 406.708 73.0698 409.091C73.0698 411.474 72.6785 413.296 71.8959 414.557C71.1273 415.818 69.9953 416.448 68.5 416.448C67.0187 416.448 65.8867 415.818 65.1041 414.557C64.3215 413.296 63.9302 411.474 63.9302 409.091C63.9302 406.722 64.3215 404.907 65.1041 403.646C65.8867 402.386 67.0187 401.755 68.5 401.755ZM65.4185 409.091C65.4185 410.782 65.5723 412.105 65.8797 413.061L70.5334 403.854C70.0442 403.203 69.3664 402.878 68.5 402.878C67.5357 402.878 66.7811 403.39 66.2361 404.415C65.691 405.427 65.4185 406.985 65.4185 409.091ZM68.5 415.305C69.4782 415.305 70.2399 414.8 70.7849 413.788C71.3299 412.763 71.6024 411.197 71.6024 409.091C71.6024 407.304 71.4277 405.919 71.0784 404.935L66.4247 414.225C66.9278 414.945 67.6196 415.305 68.5 415.305Z" fill="url(#paint36_linear_122_130)" fill-opacity="0.6"/>
<path d="M69.7577 438.89H72.8392V439.992H64.8525V438.89H68.4162V427.21L65.0202 429.226L64.4333 428.291L68.6258 425.714H69.7577V438.89Z" fill="url(#paint37_linear_122_130)" fill-opacity="0.6"/>
<path d="M69.7577 462.641H72.8392V463.743H64.8525V462.641H68.4162V450.962L65.0202 452.977L64.4333 452.042L68.6258 449.465H69.7577V462.641Z" fill="url(#paint38_linear_122_130)" fill-opacity="0.6"/>
<path d="M68.5 473.008C69.9953 473.008 71.1273 473.639 71.8959 474.9C72.6785 476.147 73.0698 477.962 73.0698 480.345C73.0698 482.728 72.6785 484.549 71.8959 485.81C71.1273 487.071 69.9953 487.701 68.5 487.701C67.0187 487.701 65.8867 487.071 65.1041 485.81C64.3215 484.549 63.9302 482.728 63.9302 480.345C63.9302 477.975 64.3215 476.16 65.1041 474.9C65.8867 473.639 67.0187 473.008 68.5 473.008ZM65.4185 480.345C65.4185 482.035 65.5723 483.358 65.8797 484.314L70.5334 475.107C70.0442 474.456 69.3664 474.131 68.5 474.131C67.5357 474.131 66.7811 474.643 66.2361 475.669C65.691 476.68 65.4185 478.239 65.4185 480.345ZM68.5 486.558C69.4782 486.558 70.2399 486.053 70.7849 485.041C71.3299 484.016 71.6024 482.451 71.6024 480.345C71.6024 478.557 71.4277 477.172 71.0784 476.188L66.4247 485.478C66.9278 486.198 67.6196 486.558 68.5 486.558Z" fill="url(#paint39_linear_122_130)" fill-opacity="0.6"/>
<path d="M69.7577 510.143H72.8392V511.245H64.8525V510.143H68.4162V498.464L65.0202 500.48L64.4333 499.544L68.6258 496.967H69.7577V510.143Z" fill="url(#paint40_linear_122_130)" fill-opacity="0.6"/>
<path d="M68.5 520.511C69.9953 520.511 71.1273 521.141 71.8959 522.402C72.6785 523.649 73.0698 525.464 73.0698 527.847C73.0698 530.23 72.6785 532.052 71.8959 533.312C71.1273 534.573 69.9953 535.204 68.5 535.204C67.0187 535.204 65.8867 534.573 65.1041 533.312C64.3215 532.052 63.9302 530.23 63.9302 527.847C63.9302 525.478 64.3215 523.663 65.1041 522.402C65.8867 521.141 67.0187 520.511 68.5 520.511ZM65.4185 527.847C65.4185 529.537 65.5723 530.86 65.8797 531.816L70.5334 522.61C70.0442 521.958 69.3664 521.633 68.5 521.633C67.5357 521.633 66.7811 522.145 66.2361 523.171C65.691 524.182 65.4185 525.741 65.4185 527.847ZM68.5 534.061C69.4782 534.061 70.2399 533.555 70.7849 532.543C71.3299 531.518 71.6024 529.953 71.6024 527.847C71.6024 526.059 71.4277 524.674 71.0784 523.69L66.4247 532.98C66.9278 533.7 67.6196 534.061 68.5 534.061Z" fill="url(#paint41_linear_122_130)" fill-opacity="0.6"/>
<path d="M107.43 306.751C108.926 306.751 110.057 307.381 110.826 308.642C111.609 309.889 112 311.704 112 314.087C112 316.47 111.609 318.292 110.826 319.553C110.057 320.814 108.926 321.444 107.43 321.444C105.949 321.444 104.817 320.814 104.034 319.553C103.252 318.292 102.86 316.47 102.86 314.087C102.86 311.718 103.252 309.903 104.034 308.642C104.817 307.381 105.949 306.751 107.43 306.751ZM104.349 314.087C104.349 315.777 104.502 317.101 104.81 318.057L109.464 308.85C108.974 308.199 108.297 307.873 107.43 307.873C106.466 307.873 105.711 308.386 105.166 309.411C104.621 310.423 104.349 311.981 104.349 314.087ZM107.43 320.301C108.408 320.301 109.17 319.795 109.715 318.784C110.26 317.759 110.533 316.193 110.533 314.087C110.533 312.3 110.358 310.914 110.009 309.931L105.355 319.22C105.858 319.941 106.55 320.301 107.43 320.301Z" fill="url(#paint42_linear_122_130)" fill-opacity="0.6"/>
<path d="M108.688 343.886H111.769V344.987H103.783V343.886H107.346V332.206L103.95 334.222L103.363 333.287L107.556 330.71H108.688V343.886Z" fill="url(#paint43_linear_122_130)" fill-opacity="0.6"/>
<path d="M108.688 367.637H111.769V368.738H103.783V367.637H107.346V355.957L103.95 357.973L103.363 357.038L107.556 354.461H108.688V367.637Z" fill="url(#paint44_linear_122_130)" fill-opacity="0.6"/>
<path d="M107.43 378.004C108.926 378.004 110.057 378.635 110.826 379.895C111.609 381.142 112 382.957 112 385.34C112 387.723 111.609 389.545 110.826 390.806C110.057 392.067 108.926 392.697 107.43 392.697C105.949 392.697 104.817 392.067 104.034 390.806C103.252 389.545 102.86 387.723 102.86 385.34C102.86 382.971 103.252 381.156 104.034 379.895C104.817 378.635 105.949 378.004 107.43 378.004ZM104.349 385.34C104.349 387.031 104.502 388.354 104.81 389.31L109.464 380.103C108.974 379.452 108.297 379.126 107.43 379.126C106.466 379.126 105.711 379.639 105.166 380.664C104.621 381.676 104.349 383.234 104.349 385.34ZM107.43 391.554C108.408 391.554 109.17 391.049 109.715 390.037C110.26 389.012 110.533 387.446 110.533 385.34C110.533 383.553 110.358 382.168 110.009 381.184L105.355 390.474C105.858 391.194 106.55 391.554 107.43 391.554Z" fill="url(#paint45_linear_122_130)" fill-opacity="0.6"/>
<path d="M107.43 401.755C108.926 401.755 110.057 402.386 110.826 403.646C111.609 404.893 112 406.708 112 409.091C112 411.474 111.609 413.296 110.826 414.557C110.057 415.818 108.926 416.448 107.43 416.448C105.949 416.448 104.817 415.818 104.034 414.557C103.252 413.296 102.86 411.474 102.86 409.091C102.86 406.722 103.252 404.907 104.034 403.646C104.817 402.386 105.949 401.755 107.43 401.755ZM104.349 409.091C104.349 410.782 104.502 412.105 104.81 413.061L109.464 403.854C108.974 403.203 108.297 402.878 107.43 402.878C106.466 402.878 105.711 403.39 105.166 404.415C104.621 405.427 104.349 406.985 104.349 409.091ZM107.43 415.305C108.408 415.305 109.17 414.8 109.715 413.788C110.26 412.763 110.533 411.197 110.533 409.091C110.533 407.304 110.358 405.919 110.009 404.935L105.355 414.225C105.858 414.945 106.55 415.305 107.43 415.305Z" fill="url(#paint46_linear_122_130)" fill-opacity="0.6"/>
<g opacity="0.6">
<path d="M935.93 -17C937.356 -17 938.436 -16.395 939.17 -15.1851C939.916 -13.9885 940.29 -12.2468 940.29 -9.95987C940.29 -7.67299 939.916 -5.9246 939.17 -4.71468C938.436 -3.50476 937.356 -2.8998 935.93 -2.8998C934.517 -2.8998 933.437 -3.50476 932.69 -4.71468C931.943 -5.9246 931.57 -7.67299 931.57 -9.95987C931.57 -12.2335 931.943 -13.9752 932.69 -15.1851C933.437 -16.395 934.517 -17 935.93 -17ZM932.99 -9.95987C932.99 -8.33778 933.137 -7.06804 933.43 -6.15063L937.87 -14.9857C937.403 -15.6106 936.756 -15.923 935.93 -15.923C935.01 -15.923 934.29 -15.4311 933.77 -14.4472C933.25 -13.4766 932.99 -11.9808 932.99 -9.95987ZM935.93 -3.99671C936.863 -3.99671 937.59 -4.482 938.11 -5.4526C938.63 -6.43649 938.89 -7.93891 938.89 -9.95987C938.89 -11.675 938.723 -13.0046 938.39 -13.9486L933.95 -5.03378C934.43 -4.3424 935.09 -3.99671 935.93 -3.99671Z" fill="url(#paint47_linear_122_130)"/>
<path d="M937.13 18.6365H940.07V19.6936H932.45V18.6365H935.85V7.42819L932.61 9.36273L932.05 8.46526L936.05 5.99224H937.13V18.6365Z" fill="url(#paint48_linear_122_130)"/>
<path d="M935.93 28.5856C937.356 28.5856 938.436 29.1906 939.17 30.4005C939.916 31.5971 940.29 33.3389 940.29 35.6257C940.29 37.9126 939.916 39.661 939.17 40.8709C938.436 42.0808 937.356 42.6858 935.93 42.6858C934.517 42.6858 933.437 42.0808 932.69 40.8709C931.943 39.661 931.57 37.9126 931.57 35.6257C931.57 33.3522 931.943 31.6104 932.69 30.4005C933.437 29.1906 934.517 28.5856 935.93 28.5856ZM932.99 35.6257C932.99 37.2478 933.137 38.5176 933.43 39.435L937.87 30.5999C937.403 29.975 936.756 29.6626 935.93 29.6626C935.01 29.6626 934.29 30.1545 933.77 31.1384C933.25 32.109 932.99 33.6048 932.99 35.6257ZM935.93 41.5889C936.863 41.5889 937.59 41.1036 938.11 40.133C938.63 39.1491 938.89 37.6467 938.89 35.6257C938.89 33.9106 938.723 32.581 938.39 31.637L933.95 40.5518C934.43 41.2432 935.09 41.5889 935.93 41.5889Z" fill="url(#paint49_linear_122_130)"/>
<path d="M937.13 64.2221H940.07V65.2792H932.45V64.2221H935.85V53.0138L932.61 54.9483L932.05 54.0509L936.05 51.5778H937.13V64.2221Z" fill="url(#paint50_linear_122_130)"/>
<path d="M937.13 87.015H940.07V88.072H932.45V87.015H935.85V75.8066L932.61 77.7411L932.05 76.8437L936.05 74.3706H937.13V87.015Z" fill="url(#paint51_linear_122_130)"/>
<path d="M935.93 96.964C937.356 96.964 938.436 97.569 939.17 98.7789C939.916 99.9755 940.29 101.717 940.29 104.004C940.29 106.291 939.916 108.039 939.17 109.249C938.436 110.459 937.356 111.064 935.93 111.064C934.517 111.064 933.437 110.459 932.69 109.249C931.943 108.039 931.57 106.291 931.57 104.004C931.57 101.731 931.943 99.9888 932.69 98.7789C933.437 97.569 934.517 96.964 935.93 96.964ZM932.99 104.004C932.99 105.626 933.137 106.896 933.43 107.813L937.87 98.9783C937.403 98.3534 936.756 98.041 935.93 98.041C935.01 98.041 934.29 98.5329 933.77 99.5168C933.25 100.487 932.99 101.983 932.99 104.004ZM935.93 109.967C936.863 109.967 937.59 109.482 938.11 108.511C938.63 107.528 938.89 106.025 938.89 104.004C938.89 102.289 938.723 100.959 938.39 100.015L933.95 108.93C934.43 109.622 935.09 109.967 935.93 109.967Z" fill="url(#paint52_linear_122_130)"/>
<path d="M937.13 132.601H940.07V133.658H932.45V132.601H935.85V121.392L932.61 123.327L932.05 122.429L936.05 119.956H937.13V132.601Z" fill="url(#paint53_linear_122_130)"/>
<path d="M935.93 142.55C937.356 142.55 938.436 143.155 939.17 144.365C939.916 145.561 940.29 147.303 940.29 149.59C940.29 151.877 939.916 153.625 939.17 154.835C938.436 156.045 937.356 156.65 935.93 156.65C934.517 156.65 933.437 156.045 932.69 154.835C931.943 153.625 931.57 151.877 931.57 149.59C931.57 147.316 931.943 145.574 932.69 144.365C933.437 143.155 934.517 142.55 935.93 142.55ZM932.99 149.59C932.99 151.212 933.137 152.482 933.43 153.399L937.87 144.564C937.403 143.939 936.756 143.627 935.93 143.627C935.01 143.627 934.29 144.119 933.77 145.102C933.25 146.073 932.99 147.569 932.99 149.59ZM935.93 155.553C936.863 155.553 937.59 155.068 938.11 154.097C938.63 153.113 938.89 151.611 938.89 149.59C938.89 147.875 938.723 146.545 938.39 145.601L933.95 154.516C934.43 155.207 935.09 155.553 935.93 155.553Z" fill="url(#paint54_linear_122_130)"/>
<path d="M935.93 165.342C937.356 165.342 938.436 165.947 939.17 167.157C939.916 168.354 940.29 170.096 940.29 172.383C940.29 174.669 939.916 176.418 939.17 177.628C938.436 178.838 937.356 179.443 935.93 179.443C934.517 179.443 933.437 178.838 932.69 177.628C931.943 176.418 931.57 174.669 931.57 172.383C931.57 170.109 931.943 168.367 932.69 167.157C933.437 165.947 934.517 165.342 935.93 165.342ZM932.99 172.383C932.99 174.005 933.137 175.274 933.43 176.192L937.87 167.357C937.403 166.732 936.756 166.419 935.93 166.419C935.01 166.419 934.29 166.911 933.77 167.895C933.25 168.866 932.99 170.362 932.99 172.383ZM935.93 178.346C936.863 178.346 937.59 177.86 938.11 176.89C938.63 175.906 938.89 174.404 938.89 172.383C938.89 170.667 938.723 169.338 938.39 168.394L933.95 177.309C934.43 178 935.09 178.346 935.93 178.346Z" fill="url(#paint55_linear_122_130)"/>
<path d="M937.13 200.979H940.07V202.036H932.45V200.979H935.85V189.771L932.61 191.705L932.05 190.808L936.05 188.335H937.13V200.979Z" fill="url(#paint56_linear_122_130)"/>
<path d="M935.93 210.928C937.356 210.928 938.436 211.533 939.17 212.743C939.916 213.94 940.29 215.681 940.29 217.968C940.29 220.255 939.916 222.003 939.17 223.213C938.436 224.423 937.356 225.028 935.93 225.028C934.517 225.028 933.437 224.423 932.69 223.213C931.943 222.003 931.57 220.255 931.57 217.968C931.57 215.695 931.943 213.953 932.69 212.743C933.437 211.533 934.517 210.928 935.93 210.928ZM932.99 217.968C932.99 219.59 933.137 220.86 933.43 221.777L937.87 212.942C937.403 212.317 936.756 212.005 935.93 212.005C935.01 212.005 934.29 212.497 933.77 213.481C933.25 214.451 932.99 215.947 932.99 217.968ZM935.93 223.931C936.863 223.931 937.59 223.446 938.11 222.475C938.63 221.492 938.89 219.989 938.89 217.968C938.89 216.253 938.723 214.923 938.39 213.979L933.95 222.894C934.43 223.586 935.09 223.931 935.93 223.931Z" fill="url(#paint57_linear_122_130)"/>
<path d="M937.13 246.565H940.07V247.622H932.45V246.565H935.85V235.356L932.61 237.291L932.05 236.393L936.05 233.92H937.13V246.565Z" fill="url(#paint58_linear_122_130)"/>
<path d="M937.13 269.357H940.07V270.414H932.45V269.357H935.85V258.149L932.61 260.084L932.05 259.186L936.05 256.713H937.13V269.357Z" fill="url(#paint59_linear_122_130)"/>
<path d="M973.07 28.5856C974.497 28.5856 975.577 29.1906 976.31 30.4005C977.057 31.5971 977.43 33.3389 977.43 35.6257C977.43 37.9126 977.057 39.661 976.31 40.8709C975.577 42.0808 974.497 42.6858 973.07 42.6858C971.657 42.6858 970.577 42.0808 969.83 40.8709C969.084 39.661 968.71 37.9126 968.71 35.6257C968.71 33.3522 969.084 31.6104 969.83 30.4005C970.577 29.1906 971.657 28.5856 973.07 28.5856ZM970.13 35.6257C970.13 37.2478 970.277 38.5176 970.57 39.435L975.01 30.5999C974.543 29.975 973.897 29.6626 973.07 29.6626C972.15 29.6626 971.43 30.1545 970.91 31.1384C970.39 32.109 970.13 33.6048 970.13 35.6257ZM973.07 41.5889C974.003 41.5889 974.73 41.1036 975.25 40.133C975.77 39.1491 976.03 37.6467 976.03 35.6257C976.03 33.9106 975.863 32.581 975.53 31.637L971.09 40.5518C971.57 41.2432 972.23 41.5889 973.07 41.5889Z" fill="url(#paint60_linear_122_130)"/>
<path d="M974.27 64.2221H977.21V65.2792H969.59V64.2221H972.99V53.0138L969.75 54.9483L969.19 54.0509L973.19 51.5778H974.27V64.2221Z" fill="url(#paint61_linear_122_130)"/>
<path d="M973.07 74.1712C974.497 74.1712 975.577 74.7762 976.31 75.9861C977.057 77.1827 977.43 78.9245 977.43 81.2113C977.43 83.4982 977.057 85.2466 976.31 86.4565C975.577 87.6664 974.497 88.2714 973.07 88.2714C971.657 88.2714 970.577 87.6664 969.83 86.4565C969.084 85.2466 968.71 83.4982 968.71 81.2113C968.71 78.9378 969.084 77.196 969.83 75.9861C970.577 74.7762 971.657 74.1712 973.07 74.1712ZM970.13 81.2113C970.13 82.8334 970.277 84.1032 970.57 85.0206L975.01 76.1855C974.543 75.5606 973.897 75.2482 973.07 75.2482C972.15 75.2482 971.43 75.7401 970.91 76.724C970.39 77.6946 970.13 79.1904 970.13 81.2113ZM973.07 87.1745C974.003 87.1745 974.73 86.6892 975.25 85.7186C975.77 84.7347 976.03 83.2323 976.03 81.2113C976.03 79.4962 975.863 78.1666 975.53 77.2226L971.09 86.1374C971.57 86.8288 972.23 87.1745 973.07 87.1745Z" fill="url(#paint62_linear_122_130)"/>
<path d="M973.07 96.964C974.497 96.964 975.577 97.569 976.31 98.7789C977.057 99.9755 977.43 101.717 977.43 104.004C977.43 106.291 977.057 108.039 976.31 109.249C975.577 110.459 974.497 111.064 973.07 111.064C971.657 111.064 970.577 110.459 969.83 109.249C969.084 108.039 968.71 106.291 968.71 104.004C968.71 101.731 969.084 99.9888 969.83 98.7789C970.577 97.569 971.657 96.964 973.07 96.964ZM970.13 104.004C970.13 105.626 970.277 106.896 970.57 107.813L975.01 98.9783C974.543 98.3534 973.897 98.041 973.07 98.041C972.15 98.041 971.43 98.5329 970.91 99.5168C970.39 100.487 970.13 101.983 970.13 104.004ZM973.07 109.967C974.003 109.967 974.73 109.482 975.25 108.511C975.77 107.528 976.03 106.025 976.03 104.004C976.03 102.289 975.863 100.959 975.53 100.015L971.09 108.93C971.57 109.622 972.23 109.967 973.07 109.967Z" fill="url(#paint63_linear_122_130)"/>
<path d="M974.27 132.601H977.21V133.658H969.59V132.601H972.99V121.392L969.75 123.327L969.19 122.429L973.19 119.956H974.27V132.601Z" fill="url(#paint64_linear_122_130)"/>
<path d="M973.07 142.55C974.497 142.55 975.577 143.155 976.31 144.365C977.057 145.561 977.43 147.303 977.43 149.59C977.43 151.877 977.057 153.625 976.31 154.835C975.577 156.045 974.497 156.65 973.07 156.65C971.657 156.65 970.577 156.045 969.83 154.835C969.084 153.625 968.71 151.877 968.71 149.59C968.71 147.316 969.084 145.574 969.83 144.365C970.577 143.155 971.657 142.55 973.07 142.55ZM970.13 149.59C970.13 151.212 970.277 152.482 970.57 153.399L975.01 144.564C974.543 143.939 973.897 143.627 973.07 143.627C972.15 143.627 971.43 144.119 970.91 145.102C970.39 146.073 970.13 147.569 970.13 149.59ZM973.07 155.553C974.003 155.553 974.73 155.068 975.25 154.097C975.77 153.113 976.03 151.611 976.03 149.59C976.03 147.875 975.863 146.545 975.53 145.601L971.09 154.516C971.57 155.207 972.23 155.553 973.07 155.553Z" fill="url(#paint65_linear_122_130)"/>
<path d="M974.27 178.186H977.21V179.243H969.59V178.186H972.99V166.978L969.75 168.912L969.19 168.015L973.19 165.542H974.27V178.186Z" fill="url(#paint66_linear_122_130)"/>
<path d="M973.07 188.135C974.497 188.135 975.577 188.74 976.31 189.95C977.057 191.147 977.43 192.888 977.43 195.175C977.43 197.462 977.057 199.211 976.31 200.421C975.577 201.63 974.497 202.235 973.07 202.235C971.657 202.235 970.577 201.63 969.83 200.421C969.084 199.211 968.71 197.462 968.71 195.175C968.71 192.902 969.084 191.16 969.83 189.95C970.577 188.74 971.657 188.135 973.07 188.135ZM970.13 195.175C970.13 196.797 970.277 198.067 970.57 198.985L975.01 190.15C974.543 189.525 973.897 189.212 973.07 189.212C972.15 189.212 971.43 189.704 970.91 190.688C970.39 191.659 970.13 193.154 970.13 195.175ZM973.07 201.139C974.003 201.139 974.73 200.653 975.25 199.683C975.77 198.699 976.03 197.196 976.03 195.175C976.03 193.46 975.863 192.131 975.53 191.187L971.09 200.101C971.57 200.793 972.23 201.139 973.07 201.139Z" fill="url(#paint67_linear_122_130)"/>
<path d="M973.07 210.928C974.497 210.928 975.577 211.533 976.31 212.743C977.057 213.94 977.43 215.681 977.43 217.968C977.43 220.255 977.057 222.003 976.31 223.213C975.577 224.423 974.497 225.028 973.07 225.028C971.657 225.028 970.577 224.423 969.83 223.213C969.084 222.003 968.71 220.255 968.71 217.968C968.71 215.695 969.084 213.953 969.83 212.743C970.577 211.533 971.657 210.928 973.07 210.928ZM970.13 217.968C970.13 219.59 970.277 220.86 970.57 221.777L975.01 212.942C974.543 212.317 973.897 212.005 973.07 212.005C972.15 212.005 971.43 212.497 970.91 213.481C970.39 214.451 970.13 215.947 970.13 217.968ZM973.07 223.931C974.003 223.931 974.73 223.446 975.25 222.475C975.77 221.492 976.03 219.989 976.03 217.968C976.03 216.253 975.863 214.923 975.53 213.979L971.09 222.894C971.57 223.586 972.23 223.931 973.07 223.931Z" fill="url(#paint68_linear_122_130)"/>
<path d="M974.27 246.565H977.21V247.622H969.59V246.565H972.99V235.356L969.75 237.291L969.19 236.393L973.19 233.92H974.27V246.565Z" fill="url(#paint69_linear_122_130)"/>
<path d="M973.07 256.514C974.497 256.514 975.577 257.119 976.31 258.329C977.057 259.525 977.43 261.267 977.43 263.554C977.43 265.841 977.057 267.589 976.31 268.799C975.577 270.009 974.497 270.614 973.07 270.614C971.657 270.614 970.577 270.009 969.83 268.799C969.084 267.589 968.71 265.841 968.71 263.554C968.71 261.28 969.084 259.538 969.83 258.329C970.577 257.119 971.657 256.514 973.07 256.514ZM970.13 263.554C970.13 265.176 970.277 266.446 970.57 267.363L975.01 258.528C974.543 257.903 973.897 257.591 973.07 257.591C972.15 257.591 971.43 258.083 970.91 259.066C970.39 260.037 970.13 261.533 970.13 263.554ZM973.07 269.517C974.003 269.517 974.73 269.032 975.25 268.061C975.77 267.077 976.03 265.575 976.03 263.554C976.03 261.839 975.863 260.509 975.53 259.565L971.09 268.48C971.57 269.171 972.23 269.517 973.07 269.517Z" fill="url(#paint70_linear_122_130)"/>
<path d="M974.27 292.15H977.21V293.207H969.59V292.15H972.99V280.942L969.75 282.876L969.19 281.979L973.19 279.506H974.27V292.15Z" fill="url(#paint71_linear_122_130)"/>
<path d="M974.27 314.943H977.21V316H969.59V314.943H972.99V303.735L969.75 305.669L969.19 304.772L973.19 302.299H974.27V314.943Z" fill="url(#paint72_linear_122_130)"/>
<path d="M917.36 51.3784C918.786 51.3784 919.866 51.9834 920.599 53.1933C921.346 54.3899 921.719 56.1317 921.719 58.4185C921.719 60.7054 921.346 62.4538 920.599 63.6637C919.866 64.8736 918.786 65.4786 917.36 65.4786C915.946 65.4786 914.867 64.8736 914.12 63.6637C913.373 62.4538 913 60.7054 913 58.4185C913 56.145 913.373 54.4032 914.12 53.1933C914.867 51.9834 915.946 51.3784 917.36 51.3784ZM914.42 58.4185C914.42 60.0406 914.567 61.3104 914.86 62.2278L919.3 53.3927C918.833 52.7678 918.186 52.4554 917.36 52.4554C916.44 52.4554 915.72 52.9473 915.2 53.9312C914.68 54.9018 914.42 56.3976 914.42 58.4185ZM917.36 64.3817C918.293 64.3817 919.02 63.8964 919.54 62.9258C920.06 61.9419 920.319 60.4395 920.319 58.4185C920.319 56.7034 920.153 55.3738 919.82 54.4298L915.38 63.3446C915.86 64.036 916.52 64.3817 917.36 64.3817Z" fill="url(#paint73_linear_122_130)"/>
<path d="M917.36 74.1712C918.786 74.1712 919.866 74.7762 920.599 75.9861C921.346 77.1827 921.719 78.9245 921.719 81.2113C921.719 83.4982 921.346 85.2466 920.599 86.4565C919.866 87.6664 918.786 88.2714 917.36 88.2714C915.946 88.2714 914.867 87.6664 914.12 86.4565C913.373 85.2466 913 83.4982 913 81.2113C913 78.9378 913.373 77.196 914.12 75.9861C914.867 74.7762 915.946 74.1712 917.36 74.1712ZM914.42 81.2113C914.42 82.8334 914.567 84.1032 914.86 85.0206L919.3 76.1855C918.833 75.5606 918.186 75.2482 917.36 75.2482C916.44 75.2482 915.72 75.7401 915.2 76.724C914.68 77.6946 914.42 79.1904 914.42 81.2113ZM917.36 87.1745C918.293 87.1745 919.02 86.6892 919.54 85.7186C920.06 84.7347 920.319 83.2323 920.319 81.2113C920.319 79.4962 920.153 78.1666 919.82 77.2226L915.38 86.1374C915.86 86.8288 916.52 87.1745 917.36 87.1745Z" fill="url(#paint74_linear_122_130)"/>
<path d="M918.56 109.808H921.499V110.865H913.88V109.808H917.28V98.5994L914.04 100.534L913.48 99.6365L917.48 97.1635H918.56V109.808Z" fill="url(#paint75_linear_122_130)"/>
<path d="M917.36 119.757C918.786 119.757 919.866 120.362 920.599 121.572C921.346 122.768 921.719 124.51 921.719 126.797C921.719 129.084 921.346 130.832 920.599 132.042C919.866 133.252 918.786 133.857 917.36 133.857C915.946 133.857 914.867 133.252 914.12 132.042C913.373 130.832 913 129.084 913 126.797C913 124.523 913.373 122.782 914.12 121.572C914.867 120.362 915.946 119.757 917.36 119.757ZM914.42 126.797C914.42 128.419 914.567 129.689 914.86 130.606L919.3 121.771C918.833 121.146 918.186 120.834 917.36 120.834C916.44 120.834 915.72 121.326 915.2 122.31C914.68 123.28 914.42 124.776 914.42 126.797ZM917.36 132.76C918.293 132.76 919.02 132.275 919.54 131.304C920.06 130.32 920.319 128.818 920.319 126.797C920.319 125.082 920.153 123.752 919.82 122.808L915.38 131.723C915.86 132.414 916.52 132.76 917.36 132.76Z" fill="url(#paint76_linear_122_130)"/>
<path d="M918.56 155.393H921.499V156.45H913.88V155.393H917.28V144.185L914.04 146.12L913.48 145.222L917.48 142.749H918.56V155.393Z" fill="url(#paint77_linear_122_130)"/>
<path d="M918.56 178.186H921.499V179.243H913.88V178.186H917.28V166.978L914.04 168.912L913.48 168.015L917.48 165.542H918.56V178.186Z" fill="url(#paint78_linear_122_130)"/>
<path d="M955.7 18.6365H958.64V19.6936H951.02V18.6365H954.42V7.42819L951.18 9.36273L950.62 8.46526L954.62 5.99224H955.7V18.6365Z" fill="url(#paint79_linear_122_130)"/>
<path d="M954.5 28.5856C955.927 28.5856 957.006 29.1906 957.74 30.4005C958.486 31.5971 958.86 33.3389 958.86 35.6257C958.86 37.9126 958.486 39.661 957.74 40.8709C957.006 42.0808 955.927 42.6858 954.5 42.6858C953.087 42.6858 952.007 42.0808 951.26 40.8709C950.514 39.661 950.14 37.9126 950.14 35.6257C950.14 33.3522 950.514 31.6104 951.26 30.4005C952.007 29.1906 953.087 28.5856 954.5 28.5856ZM951.56 35.6257C951.56 37.2478 951.707 38.5176 952 39.435L956.44 30.5999C955.973 29.975 955.327 29.6626 954.5 29.6626C953.58 29.6626 952.86 30.1545 952.34 31.1384C951.82 32.109 951.56 33.6048 951.56 35.6257ZM954.5 41.5889C955.433 41.5889 956.16 41.1036 956.68 40.133C957.2 39.1491 957.46 37.6467 957.46 35.6257C957.46 33.9106 957.293 32.581 956.96 31.637L952.52 40.5518C953 41.2432 953.66 41.5889 954.5 41.5889Z" fill="url(#paint80_linear_122_130)"/>
<path d="M955.7 64.2221H958.64V65.2792H951.02V64.2221H954.42V53.0138L951.18 54.9483L950.62 54.0509L954.62 51.5778H955.7V64.2221Z" fill="url(#paint81_linear_122_130)"/>
<path d="M955.7 87.015H958.64V88.072H951.02V87.015H954.42V75.8066L951.18 77.7411L950.62 76.8437L954.62 74.3706H955.7V87.015Z" fill="url(#paint82_linear_122_130)"/>
<path d="M954.5 96.964C955.927 96.964 957.006 97.569 957.74 98.7789C958.486 99.9755 958.86 101.717 958.86 104.004C958.86 106.291 958.486 108.039 957.74 109.249C957.006 110.459 955.927 111.064 954.5 111.064C953.087 111.064 952.007 110.459 951.26 109.249C950.514 108.039 950.14 106.291 950.14 104.004C950.14 101.731 950.514 99.9888 951.26 98.7789C952.007 97.569 953.087 96.964 954.5 96.964ZM951.56 104.004C951.56 105.626 951.707 106.896 952 107.813L956.44 98.9783C955.973 98.3534 955.327 98.041 954.5 98.041C953.58 98.041 952.86 98.5329 952.34 99.5168C951.82 100.487 951.56 101.983 951.56 104.004ZM954.5 109.967C955.433 109.967 956.16 109.482 956.68 108.511C957.2 107.528 957.46 106.025 957.46 104.004C957.46 102.289 957.293 100.959 956.96 100.015L952.52 108.93C953 109.622 953.66 109.967 954.5 109.967Z" fill="url(#paint83_linear_122_130)"/>
<path d="M955.7 132.601H958.64V133.658H951.02V132.601H954.42V121.392L951.18 123.327L950.62 122.429L954.62 119.956H955.7V132.601Z" fill="url(#paint84_linear_122_130)"/>
<path d="M955.7 155.393H958.64V156.45H951.02V155.393H954.42V144.185L951.18 146.12L950.62 145.222L954.62 142.749H955.7V155.393Z" fill="url(#paint85_linear_122_130)"/>
<path d="M954.5 165.342C955.927 165.342 957.006 165.947 957.74 167.157C958.486 168.354 958.86 170.096 958.86 172.383C958.86 174.669 958.486 176.418 957.74 177.628C957.006 178.838 955.927 179.443 954.5 179.443C953.087 179.443 952.007 178.838 951.26 177.628C950.514 176.418 950.14 174.669 950.14 172.383C950.14 170.109 950.514 168.367 951.26 167.157C952.007 165.947 953.087 165.342 954.5 165.342ZM951.56 172.383C951.56 174.005 951.707 175.274 952 176.192L956.44 167.357C955.973 166.732 955.327 166.419 954.5 166.419C953.58 166.419 952.86 166.911 952.34 167.895C951.82 168.866 951.56 170.362 951.56 172.383ZM954.5 178.346C955.433 178.346 956.16 177.86 956.68 176.89C957.2 175.906 957.46 174.404 957.46 172.383C957.46 170.667 957.293 169.338 956.96 168.394L952.52 177.309C953 178 953.66 178.346 954.5 178.346Z" fill="url(#paint86_linear_122_130)"/>
<path d="M955.7 200.979H958.64V202.036H951.02V200.979H954.42V189.771L951.18 191.705L950.62 190.808L954.62 188.335H955.7V200.979Z" fill="url(#paint87_linear_122_130)"/>
<path d="M954.5 210.928C955.927 210.928 957.006 211.533 957.74 212.743C958.486 213.94 958.86 215.681 958.86 217.968C958.86 220.255 958.486 222.003 957.74 223.213C957.006 224.423 955.927 225.028 954.5 225.028C953.087 225.028 952.007 224.423 951.26 223.213C950.514 222.003 950.14 220.255 950.14 217.968C950.14 215.695 950.514 213.953 951.26 212.743C952.007 211.533 953.087 210.928 954.5 210.928ZM951.56 217.968C951.56 219.59 951.707 220.86 952 221.777L956.44 212.942C955.973 212.317 955.327 212.005 954.5 212.005C953.58 212.005 952.86 212.497 952.34 213.481C951.82 214.451 951.56 215.947 951.56 217.968ZM954.5 223.931C955.433 223.931 956.16 223.446 956.68 222.475C957.2 221.492 957.46 219.989 957.46 217.968C957.46 216.253 957.293 214.923 956.96 213.979L952.52 222.894C953 223.586 953.66 223.931 954.5 223.931Z" fill="url(#paint88_linear_122_130)"/>
<path d="M991.64 5.7928C993.067 5.7928 994.147 6.39776 994.88 7.60768C995.627 8.8043 996 10.5461 996 12.8329C996 15.1198 995.627 16.8682 994.88 18.0781C994.147 19.288 993.067 19.893 991.64 19.893C990.227 19.893 989.147 19.288 988.401 18.0781C987.654 16.8682 987.281 15.1198 987.281 12.8329C987.281 10.5593 987.654 8.8176 988.401 7.60768C989.147 6.39776 990.227 5.7928 991.64 5.7928ZM988.7 12.8329C988.7 14.455 988.847 15.7248 989.14 16.6422L993.58 7.80712C993.114 7.18221 992.467 6.86976 991.64 6.86976C990.72 6.86976 990 7.36171 989.48 8.3456C988.96 9.31619 988.7 10.812 988.7 12.8329ZM991.64 18.7961C992.574 18.7961 993.3 18.3108 993.82 17.3402C994.34 16.3563 994.6 14.8539 994.6 12.8329C994.6 11.1178 994.433 9.78819 994.1 8.84419L989.66 17.759C990.14 18.4504 990.8 18.7961 991.64 18.7961Z" fill="url(#paint89_linear_122_130)"/>
<path d="M992.84 41.4293H995.78V42.4864H988.161V41.4293H991.56V30.221L988.321 32.1555L987.761 31.2581L991.76 28.785H992.84V41.4293Z" fill="url(#paint90_linear_122_130)"/>
<path d="M992.84 64.2221H995.78V65.2792H988.161V64.2221H991.56V53.0138L988.321 54.9483L987.761 54.0509L991.76 51.5778H992.84V64.2221Z" fill="url(#paint91_linear_122_130)"/>
<path d="M991.64 74.1712C993.067 74.1712 994.147 74.7762 994.88 75.9861C995.627 77.1827 996 78.9245 996 81.2113C996 83.4982 995.627 85.2466 994.88 86.4565C994.147 87.6664 993.067 88.2714 991.64 88.2714C990.227 88.2714 989.147 87.6664 988.401 86.4565C987.654 85.2466 987.281 83.4982 987.281 81.2113C987.281 78.9378 987.654 77.196 988.401 75.9861C989.147 74.7762 990.227 74.1712 991.64 74.1712ZM988.7 81.2113C988.7 82.8334 988.847 84.1032 989.14 85.0206L993.58 76.1855C993.114 75.5606 992.467 75.2482 991.64 75.2482C990.72 75.2482 990 75.7401 989.48 76.724C988.96 77.6946 988.7 79.1904 988.7 81.2113ZM991.64 87.1745C992.574 87.1745 993.3 86.6892 993.82 85.7186C994.34 84.7347 994.6 83.2323 994.6 81.2113C994.6 79.4962 994.433 78.1666 994.1 77.2226L989.66 86.1374C990.14 86.8288 990.8 87.1745 991.64 87.1745Z" fill="url(#paint92_linear_122_130)"/>
<path d="M991.64 96.964C993.067 96.964 994.147 97.569 994.88 98.7789C995.627 99.9755 996 101.717 996 104.004C996 106.291 995.627 108.039 994.88 109.249C994.147 110.459 993.067 111.064 991.64 111.064C990.227 111.064 989.147 110.459 988.401 109.249C987.654 108.039 987.281 106.291 987.281 104.004C987.281 101.731 987.654 99.9888 988.401 98.7789C989.147 97.569 990.227 96.964 991.64 96.964ZM988.7 104.004C988.7 105.626 988.847 106.896 989.14 107.813L993.58 98.9783C993.114 98.3534 992.467 98.041 991.64 98.041C990.72 98.041 990 98.5329 989.48 99.5168C988.96 100.487 988.7 101.983 988.7 104.004ZM991.64 109.967C992.574 109.967 993.3 109.482 993.82 108.511C994.34 107.528 994.6 106.025 994.6 104.004C994.6 102.289 994.433 100.959 994.1 100.015L989.66 108.93C990.14 109.622 990.8 109.967 991.64 109.967Z" fill="url(#paint93_linear_122_130)"/>
</g>
</g>
<defs>
<filter id="filter0_f_122_130" x="-542.19" y="-703.19" width="2141.38" height="1500.38" filterUnits="userSpaceOnUse" color-interpolation-filters="sRGB">
<feFlood flood-opacity="0" result="BackgroundImageFix"/>
<feBlend mode="normal" in="SourceGraphic" in2="BackgroundImageFix" result="shape"/>
<feGaussianBlur stdDeviation="200.095" result="effect1_foregroundBlur_122_130"/>
</filter>
<linearGradient id="paint0_linear_122_130" x1="68.5" y1="283" x2="68.5" y2="594.381" gradientUnits="userSpaceOnUse">
<stop stop-color="#F7DD43"/>
<stop offset="1" stop-color="#F7DD43" stop-opacity="0"/>
</linearGradient>
<linearGradient id="paint1_linear_122_130" x1="68.5" y1="283" x2="68.5" y2="594.381" gradientUnits="userSpaceOnUse">
<stop stop-color="#F7DD43"/>
<stop offset="1" stop-color="#F7DD43" stop-opacity="0"/>
</linearGradient>
<linearGradient id="paint2_linear_122_130" x1="68.5" y1="283" x2="68.5" y2="594.381" gradientUnits="userSpaceOnUse">
<stop stop-color="#F7DD43"/>
<stop offset="1" stop-color="#F7DD43" stop-opacity="0"/>
</linearGradient>
<linearGradient id="paint3_linear_122_130" x1="68.5" y1="283" x2="68.5" y2="594.381" gradientUnits="userSpaceOnUse">
<stop stop-color="#F7DD43"/>
<stop offset="1" stop-color="#F7DD43" stop-opacity="0"/>
</linearGradient>
<linearGradient id="paint4_linear_122_130" x1="68.5" y1="283" x2="68.5" y2="594.381" gradientUnits="userSpaceOnUse">
<stop stop-color="#F7DD43"/>
<stop offset="1" stop-color="#F7DD43" stop-opacity="0"/>
</linearGradient>
<linearGradient id="paint5_linear_122_130" x1="68.5" y1="283" x2="68.5" y2="594.381" gradientUnits="userSpaceOnUse">
<stop stop-color="#F7DD43"/>
<stop offset="1" stop-color="#F7DD43" stop-opacity="0"/>
</linearGradient>
<linearGradient id="paint6_linear_122_130" x1="68.5" y1="283" x2="68.5" y2="594.381" gradientUnits="userSpaceOnUse">
<stop stop-color="#F7DD43"/>
<stop offset="1" stop-color="#F7DD43" stop-opacity="0"/>
</linearGradient>
<linearGradient id="paint7_linear_122_130" x1="68.5" y1="283" x2="68.5" y2="594.381" gradientUnits="userSpaceOnUse">
<stop stop-color="#F7DD43"/>
<stop offset="1" stop-color="#F7DD43" stop-opacity="0"/>
</linearGradient>
<linearGradient id="paint8_linear_122_130" x1="68.5" y1="283" x2="68.5" y2="594.381" gradientUnits="userSpaceOnUse">
<stop stop-color="#F7DD43"/>
<stop offset="1" stop-color="#F7DD43" stop-opacity="0"/>
</linearGradient>
<linearGradient id="paint9_linear_122_130" x1="68.5" y1="283" x2="68.5" y2="594.381" gradientUnits="userSpaceOnUse">
<stop stop-color="#F7DD43"/>
<stop offset="1" stop-color="#F7DD43" stop-opacity="0"/>
</linearGradient>
<linearGradient id="paint10_linear_122_130" x1="68.5" y1="283" x2="68.5" y2="594.381" gradientUnits="userSpaceOnUse">
<stop stop-color="#F7DD43"/>
<stop offset="1" stop-color="#F7DD43" stop-opacity="0"/>
</linearGradient>
<linearGradient id="paint11_linear_122_130" x1="68.5" y1="283" x2="68.5" y2="594.381" gradientUnits="userSpaceOnUse">
<stop stop-color="#F7DD43"/>
<stop offset="1" stop-color="#F7DD43" stop-opacity="0"/>
</linearGradient>
<linearGradient id="paint12_linear_122_130" x1="68.5" y1="283" x2="68.5" y2="594.381" gradientUnits="userSpaceOnUse">
<stop stop-color="#F7DD43"/>
<stop offset="1" stop-color="#F7DD43" stop-opacity="0"/>
</linearGradient>
<linearGradient id="paint13_linear_122_130" x1="68.5" y1="283" x2="68.5" y2="594.381" gradientUnits="userSpaceOnUse">
<stop stop-color="#F7DD43"/>
<stop offset="1" stop-color="#F7DD43" stop-opacity="0"/>
</linearGradient>
<linearGradient id="paint14_linear_122_130" x1="68.5" y1="283" x2="68.5" y2="594.381" gradientUnits="userSpaceOnUse">
<stop stop-color="#F7DD43"/>
<stop offset="1" stop-color="#F7DD43" stop-opacity="0"/>
</linearGradient>
<linearGradient id="paint15_linear_122_130" x1="68.5" y1="283" x2="68.5" y2="594.381" gradientUnits="userSpaceOnUse">
<stop stop-color="#F7DD43"/>
<stop offset="1" stop-color="#F7DD43" stop-opacity="0"/>
</linearGradient>
<linearGradient id="paint16_linear_122_130" x1="68.5" y1="283" x2="68.5" y2="594.381" gradientUnits="userSpaceOnUse">
<stop stop-color="#F7DD43"/>
<stop offset="1" stop-color="#F7DD43" stop-opacity="0"/>
</linearGradient>
<linearGradient id="paint17_linear_122_130" x1="68.5" y1="283" x2="68.5" y2="594.381" gradientUnits="userSpaceOnUse">
<stop stop-color="#F7DD43"/>
<stop offset="1" stop-color="#F7DD43" stop-opacity="0"/>
</linearGradient>
<linearGradient id="paint18_linear_122_130" x1="68.5" y1="283" x2="68.5" y2="594.381" gradientUnits="userSpaceOnUse">
<stop stop-color="#F7DD43"/>
<stop offset="1" stop-color="#F7DD43" stop-opacity="0"/>
</linearGradient>
<linearGradient id="paint19_linear_122_130" x1="68.5" y1="283" x2="68.5" y2="594.381" gradientUnits="userSpaceOnUse">
<stop stop-color="#F7DD43"/>
<stop offset="1" stop-color="#F7DD43" stop-opacity="0"/>
</linearGradient>
<linearGradient id="paint20_linear_122_130" x1="68.5" y1="283" x2="68.5" y2="594.381" gradientUnits="userSpaceOnUse">
<stop stop-color="#F7DD43"/>
<stop offset="1" stop-color="#F7DD43" stop-opacity="0"/>
</linearGradient>
<linearGradient id="paint21_linear_122_130" x1="68.5" y1="283" x2="68.5" y2="594.381" gradientUnits="userSpaceOnUse">
<stop stop-color="#F7DD43"/>
<stop offset="1" stop-color="#F7DD43" stop-opacity="0"/>
</linearGradient>
<linearGradient id="paint22_linear_122_130" x1="68.5" y1="283" x2="68.5" y2="594.381" gradientUnits="userSpaceOnUse">
<stop stop-color="#F7DD43"/>
<stop offset="1" stop-color="#F7DD43" stop-opacity="0"/>
</linearGradient>
<linearGradient id="paint23_linear_122_130" x1="68.5" y1="283" x2="68.5" y2="594.381" gradientUnits="userSpaceOnUse">
<stop stop-color="#F7DD43"/>
<stop offset="1" stop-color="#F7DD43" stop-opacity="0"/>
</linearGradient>
<linearGradient id="paint24_linear_122_130" x1="68.5" y1="283" x2="68.5" y2="594.381" gradientUnits="userSpaceOnUse">
<stop stop-color="#F7DD43"/>
<stop offset="1" stop-color="#F7DD43" stop-opacity="0"/>
</linearGradient>
<linearGradient id="paint25_linear_122_130" x1="68.5" y1="283" x2="68.5" y2="594.381" gradientUnits="userSpaceOnUse">
<stop stop-color="#F7DD43"/>
<stop offset="1" stop-color="#F7DD43" stop-opacity="0"/>
</linearGradient>
<linearGradient id="paint26_linear_122_130" x1="68.5" y1="283" x2="68.5" y2="594.381" gradientUnits="userSpaceOnUse">
<stop stop-color="#F7DD43"/>
<stop offset="1" stop-color="#F7DD43" stop-opacity="0"/>
</linearGradient>
<linearGradient id="paint27_linear_122_130" x1="68.5" y1="283" x2="68.5" y2="594.381" gradientUnits="userSpaceOnUse">
<stop stop-color="#F7DD43"/>
<stop offset="1" stop-color="#F7DD43" stop-opacity="0"/>
</linearGradient>
<linearGradient id="paint28_linear_122_130" x1="68.5" y1="283" x2="68.5" y2="594.381" gradientUnits="userSpaceOnUse">
<stop stop-color="#F7DD43"/>
<stop offset="1" stop-color="#F7DD43" stop-opacity="0"/>
</linearGradient>
<linearGradient id="paint29_linear_122_130" x1="68.5" y1="283" x2="68.5" y2="594.381" gradientUnits="userSpaceOnUse">
<stop stop-color="#F7DD43"/>
<stop offset="1" stop-color="#F7DD43" stop-opacity="0"/>
</linearGradient>
<linearGradient id="paint30_linear_122_130" x1="68.5" y1="283" x2="68.5" y2="594.381" gradientUnits="userSpaceOnUse">
<stop stop-color="#F7DD43"/>
<stop offset="1" stop-color="#F7DD43" stop-opacity="0"/>
</linearGradient>
<linearGradient id="paint31_linear_122_130" x1="68.5" y1="283" x2="68.5" y2="594.381" gradientUnits="userSpaceOnUse">
<stop stop-color="#F7DD43"/>
<stop offset="1" stop-color="#F7DD43" stop-opacity="0"/>
</linearGradient>
<linearGradient id="paint32_linear_122_130" x1="68.5" y1="283" x2="68.5" y2="594.381" gradientUnits="userSpaceOnUse">
<stop stop-color="#F7DD43"/>
<stop offset="1" stop-color="#F7DD43" stop-opacity="0"/>
</linearGradient>
<linearGradient id="paint33_linear_122_130" x1="68.5" y1="283" x2="68.5" y2="594.381" gradientUnits="userSpaceOnUse">
<stop stop-color="#F7DD43"/>
<stop offset="1" stop-color="#F7DD43" stop-opacity="0"/>
</linearGradient>
<linearGradient id="paint34_linear_122_130" x1="68.5" y1="283" x2="68.5" y2="594.381" gradientUnits="userSpaceOnUse">
<stop stop-color="#F7DD43"/>
<stop offset="1" stop-color="#F7DD43" stop-opacity="0"/>
</linearGradient>
<linearGradient id="paint35_linear_122_130" x1="68.5" y1="283" x2="68.5" y2="594.381" gradientUnits="userSpaceOnUse">
<stop stop-color="#F7DD43"/>
<stop offset="1" stop-color="#F7DD43" stop-opacity="0"/>
</linearGradient>
<linearGradient id="paint36_linear_122_130" x1="68.5" y1="283" x2="68.5" y2="594.381" gradientUnits="userSpaceOnUse">
<stop stop-color="#F7DD43"/>
<stop offset="1" stop-color="#F7DD43" stop-opacity="0"/>
</linearGradient>
<linearGradient id="paint37_linear_122_130" x1="68.5" y1="283" x2="68.5" y2="594.381" gradientUnits="userSpaceOnUse">
<stop stop-color="#F7DD43"/>
<stop offset="1" stop-color="#F7DD43" stop-opacity="0"/>
</linearGradient>
<linearGradient id="paint38_linear_122_130" x1="68.5" y1="283" x2="68.5" y2="594.381" gradientUnits="userSpaceOnUse">
<stop stop-color="#F7DD43"/>
<stop offset="1" stop-color="#F7DD43" stop-opacity="0"/>
</linearGradient>
<linearGradient id="paint39_linear_122_130" x1="68.5" y1="283" x2="68.5" y2="594.381" gradientUnits="userSpaceOnUse">
<stop stop-color="#F7DD43"/>
<stop offset="1" stop-color="#F7DD43" stop-opacity="0"/>
</linearGradient>
<linearGradient id="paint40_linear_122_130" x1="68.5" y1="283" x2="68.5" y2="594.381" gradientUnits="userSpaceOnUse">
<stop stop-color="#F7DD43"/>
<stop offset="1" stop-color="#F7DD43" stop-opacity="0"/>
</linearGradient>
<linearGradient id="paint41_linear_122_130" x1="68.5" y1="283" x2="68.5" y2="594.381" gradientUnits="userSpaceOnUse">
<stop stop-color="#F7DD43"/>
<stop offset="1" stop-color="#F7DD43" stop-opacity="0"/>
</linearGradient>
<linearGradient id="paint42_linear_122_130" x1="68.5" y1="283" x2="68.5" y2="594.381" gradientUnits="userSpaceOnUse">
<stop stop-color="#F7DD43"/>
<stop offset="1" stop-color="#F7DD43" stop-opacity="0"/>
</linearGradient>
<linearGradient id="paint43_linear_122_130" x1="68.5" y1="283" x2="68.5" y2="594.381" gradientUnits="userSpaceOnUse">
<stop stop-color="#F7DD43"/>
<stop offset="1" stop-color="#F7DD43" stop-opacity="0"/>
</linearGradient>
<linearGradient id="paint44_linear_122_130" x1="68.5" y1="283" x2="68.5" y2="594.381" gradientUnits="userSpaceOnUse">
<stop stop-color="#F7DD43"/>
<stop offset="1" stop-color="#F7DD43" stop-opacity="0"/>
</linearGradient>
<linearGradient id="paint45_linear_122_130" x1="68.5" y1="283" x2="68.5" y2="594.381" gradientUnits="userSpaceOnUse">
<stop stop-color="#F7DD43"/>
<stop offset="1" stop-color="#F7DD43" stop-opacity="0"/>
</linearGradient>
<linearGradient id="paint46_linear_122_130" x1="68.5" y1="283" x2="68.5" y2="594.381" gradientUnits="userSpaceOnUse">
<stop stop-color="#F7DD43"/>
<stop offset="1" stop-color="#F7DD43" stop-opacity="0"/>
</linearGradient>
<linearGradient id="paint47_linear_122_130" x1="954.5" y1="-17" x2="954.5" y2="281.818" gradientUnits="userSpaceOnUse">
<stop stop-color="#F7DD43"/>
<stop offset="1" stop-color="#F7DD43" stop-opacity="0"/>
</linearGradient>
<linearGradient id="paint48_linear_122_130" x1="954.5" y1="-17" x2="954.5" y2="281.818" gradientUnits="userSpaceOnUse">
<stop stop-color="#F7DD43"/>
<stop offset="1" stop-color="#F7DD43" stop-opacity="0"/>
</linearGradient>
<linearGradient id="paint49_linear_122_130" x1="954.5" y1="-17" x2="954.5" y2="281.818" gradientUnits="userSpaceOnUse">
<stop stop-color="#F7DD43"/>
<stop offset="1" stop-color="#F7DD43" stop-opacity="0"/>
</linearGradient>
<linearGradient id="paint50_linear_122_130" x1="954.5" y1="-17" x2="954.5" y2="281.818" gradientUnits="userSpaceOnUse">
<stop stop-color="#F7DD43"/>
<stop offset="1" stop-color="#F7DD43" stop-opacity="0"/>
</linearGradient>
<linearGradient id="paint51_linear_122_130" x1="954.5" y1="-17" x2="954.5" y2="281.818" gradientUnits="userSpaceOnUse">
<stop stop-color="#F7DD43"/>
<stop offset="1" stop-color="#F7DD43" stop-opacity="0"/>
</linearGradient>
<linearGradient id="paint52_linear_122_130" x1="954.5" y1="-17" x2="954.5" y2="281.818" gradientUnits="userSpaceOnUse">
<stop stop-color="#F7DD43"/>
<stop offset="1" stop-color="#F7DD43" stop-opacity="0"/>
</linearGradient>
<linearGradient id="paint53_linear_122_130" x1="954.5" y1="-17" x2="954.5" y2="281.818" gradientUnits="userSpaceOnUse">
<stop stop-color="#F7DD43"/>
<stop offset="1" stop-color="#F7DD43" stop-opacity="0"/>
</linearGradient>
<linearGradient id="paint54_linear_122_130" x1="954.5" y1="-17" x2="954.5" y2="281.818" gradientUnits="userSpaceOnUse">
<stop stop-color="#F7DD43"/>
<stop offset="1" stop-color="#F7DD43" stop-opacity="0"/>
</linearGradient>
<linearGradient id="paint55_linear_122_130" x1="954.5" y1="-17" x2="954.5" y2="281.818" gradientUnits="userSpaceOnUse">
<stop stop-color="#F7DD43"/>
<stop offset="1" stop-color="#F7DD43" stop-opacity="0"/>
</linearGradient>
<linearGradient id="paint56_linear_122_130" x1="954.5" y1="-17" x2="954.5" y2="281.818" gradientUnits="userSpaceOnUse">
<stop stop-color="#F7DD43"/>
<stop offset="1" stop-color="#F7DD43" stop-opacity="0"/>
</linearGradient>
<linearGradient id="paint57_linear_122_130" x1="954.5" y1="-17" x2="954.5" y2="281.818" gradientUnits="userSpaceOnUse">
<stop stop-color="#F7DD43"/>
<stop offset="1" stop-color="#F7DD43" stop-opacity="0"/>
</linearGradient>
<linearGradient id="paint58_linear_122_130" x1="954.5" y1="-17" x2="954.5" y2="281.818" gradientUnits="userSpaceOnUse">
<stop stop-color="#F7DD43"/>
<stop offset="1" stop-color="#F7DD43" stop-opacity="0"/>
</linearGradient>
<linearGradient id="paint59_linear_122_130" x1="954.5" y1="-17" x2="954.5" y2="281.818" gradientUnits="userSpaceOnUse">
<stop stop-color="#F7DD43"/>
<stop offset="1" stop-color="#F7DD43" stop-opacity="0"/>
</linearGradient>
<linearGradient id="paint60_linear_122_130" x1="954.5" y1="-17" x2="954.5" y2="281.818" gradientUnits="userSpaceOnUse">
<stop stop-color="#F7DD43"/>
<stop offset="1" stop-color="#F7DD43" stop-opacity="0"/>
</linearGradient>
<linearGradient id="paint61_linear_122_130" x1="954.5" y1="-17" x2="954.5" y2="281.818" gradientUnits="userSpaceOnUse">
<stop stop-color="#F7DD43"/>
<stop offset="1" stop-color="#F7DD43" stop-opacity="0"/>
</linearGradient>
<linearGradient id="paint62_linear_122_130" x1="954.5" y1="-17" x2="954.5" y2="281.818" gradientUnits="userSpaceOnUse">
<stop stop-color="#F7DD43"/>
<stop offset="1" stop-color="#F7DD43" stop-opacity="0"/>
</linearGradient>
<linearGradient id="paint63_linear_122_130" x1="954.5" y1="-17" x2="954.5" y2="281.818" gradientUnits="userSpaceOnUse">
<stop stop-color="#F7DD43"/>
<stop offset="1" stop-color="#F7DD43" stop-opacity="0"/>
</linearGradient>
<linearGradient id="paint64_linear_122_130" x1="954.5" y1="-17" x2="954.5" y2="281.818" gradientUnits="userSpaceOnUse">
<stop stop-color="#F7DD43"/>
<stop offset="1" stop-color="#F7DD43" stop-opacity="0"/>
</linearGradient>
<linearGradient id="paint65_linear_122_130" x1="954.5" y1="-17" x2="954.5" y2="281.818" gradientUnits="userSpaceOnUse">
<stop stop-color="#F7DD43"/>
<stop offset="1" stop-color="#F7DD43" stop-opacity="0"/>
</linearGradient>
<linearGradient id="paint66_linear_122_130" x1="954.5" y1="-17" x2="954.5" y2="281.818" gradientUnits="userSpaceOnUse">
<stop stop-color="#F7DD43"/>
<stop offset="1" stop-color="#F7DD43" stop-opacity="0"/>
</linearGradient>
<linearGradient id="paint67_linear_122_130" x1="954.5" y1="-17" x2="954.5" y2="281.818" gradientUnits="userSpaceOnUse">
<stop stop-color="#F7DD43"/>
<stop offset="1" stop-color="#F7DD43" stop-opacity="0"/>
</linearGradient>
<linearGradient id="paint68_linear_122_130" x1="954.5" y1="-17" x2="954.5" y2="281.818" gradientUnits="userSpaceOnUse">
<stop stop-color="#F7DD43"/>
<stop offset="1" stop-color="#F7DD43" stop-opacity="0"/>
</linearGradient>
<linearGradient id="paint69_linear_122_130" x1="954.5" y1="-17" x2="954.5" y2="281.818" gradientUnits="userSpaceOnUse">
<stop stop-color="#F7DD43"/>
<stop offset="1" stop-color="#F7DD43" stop-opacity="0"/>
</linearGradient>
<linearGradient id="paint70_linear_122_130" x1="954.5" y1="-17" x2="954.5" y2="281.818" gradientUnits="userSpaceOnUse">
<stop stop-color="#F7DD43"/>
<stop offset="1" stop-color="#F7DD43" stop-opacity="0"/>
</linearGradient>
<linearGradient id="paint71_linear_122_130" x1="954.5" y1="-17" x2="954.5" y2="281.818" gradientUnits="userSpaceOnUse">
<stop stop-color="#F7DD43"/>
<stop offset="1" stop-color="#F7DD43" stop-opacity="0"/>
</linearGradient>
<linearGradient id="paint72_linear_122_130" x1="954.5" y1="-17" x2="954.5" y2="281.818" gradientUnits="userSpaceOnUse">
<stop stop-color="#F7DD43"/>
<stop offset="1" stop-color="#F7DD43" stop-opacity="0"/>
</linearGradient>
<linearGradient id="paint73_linear_122_130" x1="954.5" y1="-17" x2="954.5" y2="281.818" gradientUnits="userSpaceOnUse">
<stop stop-color="#F7DD43"/>
<stop offset="1" stop-color="#F7DD43" stop-opacity="0"/>
</linearGradient>
<linearGradient id="paint74_linear_122_130" x1="954.5" y1="-17" x2="954.5" y2="281.818" gradientUnits="userSpaceOnUse">
<stop stop-color="#F7DD43"/>
<stop offset="1" stop-color="#F7DD43" stop-opacity="0"/>
</linearGradient>
<linearGradient id="paint75_linear_122_130" x1="954.5" y1="-17" x2="954.5" y2="281.818" gradientUnits="userSpaceOnUse">
<stop stop-color="#F7DD43"/>
<stop offset="1" stop-color="#F7DD43" stop-opacity="0"/>
</linearGradient>
<linearGradient id="paint76_linear_122_130" x1="954.5" y1="-17" x2="954.5" y2="281.818" gradientUnits="userSpaceOnUse">
<stop stop-color="#F7DD43"/>
<stop offset="1" stop-color="#F7DD43" stop-opacity="0"/>
</linearGradient>
<linearGradient id="paint77_linear_122_130" x1="954.5" y1="-17" x2="954.5" y2="281.818" gradientUnits="userSpaceOnUse">
<stop stop-color="#F7DD43"/>
<stop offset="1" stop-color="#F7DD43" stop-opacity="0"/>
</linearGradient>
<linearGradient id="paint78_linear_122_130" x1="954.5" y1="-17" x2="954.5" y2="281.818" gradientUnits="userSpaceOnUse">
<stop stop-color="#F7DD43"/>
<stop offset="1" stop-color="#F7DD43" stop-opacity="0"/>
</linearGradient>
<linearGradient id="paint79_linear_122_130" x1="954.5" y1="-17" x2="954.5" y2="281.818" gradientUnits="userSpaceOnUse">
<stop stop-color="#F7DD43"/>
<stop offset="1" stop-color="#F7DD43" stop-opacity="0"/>
</linearGradient>
<linearGradient id="paint80_linear_122_130" x1="954.5" y1="-17" x2="954.5" y2="281.818" gradientUnits="userSpaceOnUse">
<stop stop-color="#F7DD43"/>
<stop offset="1" stop-color="#F7DD43" stop-opacity="0"/>
</linearGradient>
<linearGradient id="paint81_linear_122_130" x1="954.5" y1="-17" x2="954.5" y2="281.818" gradientUnits="userSpaceOnUse">
<stop stop-color="#F7DD43"/>
<stop offset="1" stop-color="#F7DD43" stop-opacity="0"/>
</linearGradient>
<linearGradient id="paint82_linear_122_130" x1="954.5" y1="-17" x2="954.5" y2="281.818" gradientUnits="userSpaceOnUse">
<stop stop-color="#F7DD43"/>
<stop offset="1" stop-color="#F7DD43" stop-opacity="0"/>
</linearGradient>
<linearGradient id="paint83_linear_122_130" x1="954.5" y1="-17" x2="954.5" y2="281.818" gradientUnits="userSpaceOnUse">
<stop stop-color="#F7DD43"/>
<stop offset="1" stop-color="#F7DD43" stop-opacity="0"/>
</linearGradient>
<linearGradient id="paint84_linear_122_130" x1="954.5" y1="-17" x2="954.5" y2="281.818" gradientUnits="userSpaceOnUse">
<stop stop-color="#F7DD43"/>
<stop offset="1" stop-color="#F7DD43" stop-opacity="0"/>
</linearGradient>
<linearGradient id="paint85_linear_122_130" x1="954.5" y1="-17" x2="954.5" y2="281.818" gradientUnits="userSpaceOnUse">
<stop stop-color="#F7DD43"/>
<stop offset="1" stop-color="#F7DD43" stop-opacity="0"/>
</linearGradient>
<linearGradient id="paint86_linear_122_130" x1="954.5" y1="-17" x2="954.5" y2="281.818" gradientUnits="userSpaceOnUse">
<stop stop-color="#F7DD43"/>
<stop offset="1" stop-color="#F7DD43" stop-opacity="0"/>
</linearGradient>
<linearGradient id="paint87_linear_122_130" x1="954.5" y1="-17" x2="954.5" y2="281.818" gradientUnits="userSpaceOnUse">
<stop stop-color="#F7DD43"/>
<stop offset="1" stop-color="#F7DD43" stop-opacity="0"/>
</linearGradient>
<linearGradient id="paint88_linear_122_130" x1="954.5" y1="-17" x2="954.5" y2="281.818" gradientUnits="userSpaceOnUse">
<stop stop-color="#F7DD43"/>
<stop offset="1" stop-color="#F7DD43" stop-opacity="0"/>
</linearGradient>
<linearGradient id="paint89_linear_122_130" x1="954.5" y1="-17" x2="954.5" y2="281.818" gradientUnits="userSpaceOnUse">
<stop stop-color="#F7DD43"/>
<stop offset="1" stop-color="#F7DD43" stop-opacity="0"/>
</linearGradient>
<linearGradient id="paint90_linear_122_130" x1="954.5" y1="-17" x2="954.5" y2="281.818" gradientUnits="userSpaceOnUse">
<stop stop-color="#F7DD43"/>
<stop offset="1" stop-color="#F7DD43" stop-opacity="0"/>
</linearGradient>
<linearGradient id="paint91_linear_122_130" x1="954.5" y1="-17" x2="954.5" y2="281.818" gradientUnits="userSpaceOnUse">
<stop stop-color="#F7DD43"/>
<stop offset="1" stop-color="#F7DD43" stop-opacity="0"/>
</linearGradient>
<linearGradient id="paint92_linear_122_130" x1="954.5" y1="-17" x2="954.5" y2="281.818" gradientUnits="userSpaceOnUse">
<stop stop-color="#F7DD43"/>
<stop offset="1" stop-color="#F7DD43" stop-opacity="0"/>
</linearGradient>
<linearGradient id="paint93_linear_122_130" x1="954.5" y1="-17" x2="954.5" y2="281.818" gradientUnits="userSpaceOnUse">
<stop stop-color="#F7DD43"/>
<stop offset="1" stop-color="#F7DD43" stop-opacity="0"/>
</linearGradient>
<clipPath id="clip0_122_130">
<rect width="1024" height="753" fill="white"/>
</clipPath>
</defs>
</svg>
